<?xml version="1.0" standalone="no"?>
<!DOCTYPE svg PUBLIC "-//W3C//DTD SVG 20010904//EN"
 "http://www.w3.org/TR/2001/REC-SVG-20010904/DTD/svg10.dtd">
<svg version="1.0" xmlns="http://www.w3.org/2000/svg"
 width="279.000000pt" height="279.000000pt" viewBox="0 0 279.000000 279.000000"
 preserveAspectRatio="xMidYMid meet">
<metadata>
Created by potrace 1.11, written by Peter Selinger 2001-2013
</metadata>
<g transform="translate(0.000000,279.000000) scale(0.100000,-0.100000)"
fill="#000000" stroke="none">
<path d="M1371 2704 c-79 -272 -228 -568 -378 -749 -14 -16 -50 -107 -58 -145
-22 -101 -7 -223 40 -322 67 -141 228 -246 390 -253 70 -3 171 10 190 25 6 4
21 11 35 15 59 18 160 104 204 173 61 97 87 247 61 357 -17 73 -47 143 -76
175 -123 140 -284 462 -354 705 -30 105 -29 104 -54 19z"/>
<path d="M237 2138 c-19 -40 -45 -102 -57 -137 -22 -63 -22 -65 -4 -78 40 -28
104 -99 126 -140 13 -24 26 -43 29 -43 10 0 30 102 36 185 3 46 1 104 -6 136
-12 55 -62 149 -80 149 -5 0 -24 -33 -44 -72z"/>
<path d="M2466 2180 c-62 -74 -75 -228 -35 -403 l11 -48 35 58 c32 53 68 93
121 133 20 15 20 15 -3 82 -32 91 -75 185 -90 198 -9 8 -20 2 -39 -20z"/>
<path d="M142 1873 c-11 -48 -17 -79 -27 -142 -3 -19 -8 -37 -10 -41 -2 -4 22
-33 54 -66 43 -45 63 -76 82 -128 l25 -68 27 59 c31 70 42 163 24 221 -14 49
-74 133 -128 180 l-37 32 -10 -47z"/>
<path d="M2563 1867 c-23 -23 -58 -68 -77 -101 -33 -56 -35 -62 -33 -140 2
-59 10 -96 26 -133 13 -29 27 -53 31 -53 4 0 12 19 19 42 17 54 51 108 101
156 l41 39 -21 113 c-11 63 -20 115 -20 117 0 14 -32 -6 -67 -40z"/>
<path d="M84 1608 c-27 -51 -43 -134 -39 -200 5 -72 176 -593 235 -713 21 -44
75 -134 119 -200 89 -133 88 -131 186 -267 38 -53 88 -126 110 -162 l40 -66
217 0 218 0 4 23 c17 79 49 334 49 392 2 142 -23 244 -85 354 -27 50 -164 235
-210 285 -33 36 -96 171 -148 316 -61 173 -91 227 -127 236 -76 20 -117 -108
-86 -271 28 -149 90 -274 173 -349 54 -49 50 -53 -9 -11 -47 34 -209 115 -229
115 -5 0 -22 30 -36 66 -37 92 -85 164 -140 209 -26 21 -48 36 -50 34 -3 -2 2
-31 9 -64 7 -33 15 -79 18 -102 2 -22 18 -63 34 -90 30 -49 103 -220 103 -242
0 -6 13 -11 29 -11 17 0 65 -11 108 -25 210 -66 372 -226 412 -406 5 -23 5
-39 0 -39 -5 0 -9 8 -9 18 -1 26 -45 129 -76 173 -37 54 -88 103 -152 145 -94
63 -257 119 -299 103 -20 -7 -24 -4 -33 34 -17 65 -58 165 -99 242 -20 39 -38
84 -39 100 -6 84 -43 228 -77 297 -19 37 -61 85 -87 99 -14 7 -21 3 -34 -23z
m915 -1245 c-1 -53 -6 -49 -11 10 -2 20 0 37 4 37 4 0 8 -21 7 -47z"/>
<path d="M2650 1623 c-35 -24 -56 -51 -81 -103 -28 -57 -66 -196 -75 -267 -4
-37 -21 -84 -49 -138 -24 -46 -56 -121 -70 -168 l-27 -85 -43 0 c-111 0 -298
-97 -397 -206 -59 -64 -118 -199 -118 -268 0 -16 -4 -28 -8 -28 -20 0 10 129
48 206 31 64 55 96 111 148 90 83 224 153 325 169 l70 11 18 60 c10 34 40 102
66 151 36 69 50 109 59 168 6 43 16 88 22 99 17 31 3 33 -36 4 -64 -49 -87
-80 -136 -183 -35 -73 -55 -104 -71 -109 -49 -15 -136 -59 -203 -101 l-70 -45
49 48 c91 90 133 169 167 309 42 177 13 315 -66 315 -44 0 -69 -46 -155 -285
-40 -110 -92 -220 -124 -260 -213 -265 -255 -336 -289 -485 -14 -59 -16 -205
-4 -255 4 -18 26 -203 32 -280 2 -17 3 -33 4 -37 0 -5 100 -8 220 -8 l219 0
56 88 c30 48 62 96 71 107 94 117 300 432 342 523 19 41 77 202 130 360 86
257 95 292 94 355 -1 70 -22 160 -44 191 -11 15 -14 15 -37 -1z m-860 -1287
c0 -3 -4 -8 -10 -11 -5 -3 -10 -1 -10 4 0 6 5 11 10 11 6 0 10 -2 10 -4z"/>
</g>
</svg>
